
<svg width="140" height="56" viewBox="0 0 140 56" fill="none" xmlns="http://www.w3.org/2000/svg">
  <path d="M42.9994 30.5C42.9994 38.5081 36.5076 45 28.4994 45C20.4913 45 13.9994 38.5081 13.9994 30.5C13.9994 22.4919 20.4913 16 28.4994 16C36.5076 16 42.9994 22.4919 42.9994 30.5Z" fill="white"/>
  <path d="M28.9994 11C34.799 11 39.4994 15.7005 39.4994 21.5C39.4994 27.2995 34.799 32 28.9994 32C23.1999 32 18.4994 27.2995 18.4994 21.5C18.4994 15.7005 23.1999 11 28.9994 11Z" fill="white"/>
  <path d="M57.5422 30.224C57.5422 31.568 57.8109 32.6347 58.3482 33.424C58.9109 34.1867 59.6856 34.568 60.6722 34.568C61.6589 34.568 62.4336 34.1867 62.9962 33.424C63.5589 32.6347 63.8402 31.568 63.8402 30.224C63.8402 28.8533 63.5589 27.7867 62.9962 27.024C62.4336 26.2613 61.6589 25.88 60.6722 25.88C59.6856 25.88 58.9109 26.2613 58.3482 27.024C57.8109 27.7867 57.5422 28.8533 57.5422 30.224ZM67.4322 30.224C67.4322 32.064 66.9762 33.536 66.0642 34.64C65.1775 35.744 64.0416 36.296 62.6562 36.296C61.7695 36.296 60.9695 36.072 60.2562 35.624C59.5696 35.176 59.0069 34.544 58.5682 33.728H58.4882V40.2H55.0722V25.208H58.3002V27.472H58.3802C58.8189 26.656 59.3816 26.0347 60.0682 25.608C60.7549 25.1547 61.5549 24.928 62.4682 24.928C63.8802 24.928 65.0162 25.48 65.8762 26.584C66.7362 27.6613 67.4322 28.7733 67.4322 30.224Z" fill="white"/>
  <path d="M80.3262 30.368C80.3262 30.7707 80.3009 31.128 80.2502 31.44H71.7582C71.8089 32.32 72.0776 33.0107 72.5642 33.52C73.0509 34.0027 73.6642 34.244 74.4042 34.244C75.4929 34.244 76.2502 33.7627 76.6762 32.8H80.0642C79.7782 33.952 79.1382 34.9173 78.1442 35.696C77.1502 36.4747 75.9302 36.864 74.4842 36.864C73.3482 36.864 72.3349 36.6173 71.4442 36.124C70.5536 35.6307 69.8562 34.9333 69.3522 34.032C68.8736 33.1307 68.6342 32.0907 68.6342 30.912C68.6342 29.7333 68.8736 28.6933 69.3522 27.792C69.8309 26.8907 70.5282 26.1933 71.4442 25.7C72.3602 25.2067 73.3736 24.96 74.4842 24.96C75.5949 24.96 76.5889 25.2067 77.4662 25.7C78.3436 26.1933 79.0302 26.8653 79.5262 27.716C80.0222 28.5667 80.3262 29.5387 80.3262 30.368ZM77.1262 29.488C77.1262 28.736 76.8842 28.1413 76.4002 27.7C75.9162 27.2587 75.3136 27.038 74.5922 27.038C73.8962 27.038 73.3016 27.2587 72.8082 27.7C72.3416 28.1413 72.0509 28.736 71.9362 29.488H77.1262Z" fill="white"/>
  <path d="M87.003 24.96C87.7157 24.96 88.1783 25.0267 88.491 25.16L88.283 28.28C87.9437 28.1467 87.5177 28.08 87.005 28.08C86.0917 28.08 85.3917 28.3227 84.905 28.808C84.4183 29.2933 84.175 29.972 84.175 30.844V36.6H80.759V25.208H83.987V27.28H84.067C84.335 26.592 84.751 26.056 85.315 25.672C85.879 25.2613 86.5483 25.0453 87.319 25.024L87.003 24.96Z" fill="white"/>
  <path d="M94.0417 32.256L91.4897 32.048V36.6H88.0737V21.576H91.4897V29.276L93.8697 29.068L96.9937 25.208H101.05L96.7317 30.54L101.37 36.6H97.1537L94.0417 32.256Z" fill="white"/>
  <path d="M109.664 32.2C110.45 32.2 111.091 31.992 111.584 31.576C112.098 31.16 112.376 30.612 112.42 29.932H115.62C115.598 30.9 115.302 31.788 114.732 32.596C114.184 33.3827 113.434 34.0053 112.48 34.464C111.548 34.9013 110.536 35.12 109.444 35.12C108.138 35.12 107.004 34.8747 106.04 34.384C105.077 33.8933 104.33 33.172 103.8 32.22C103.292 31.268 103.038 30.14 103.038 28.836V28.472C103.038 27.1893 103.292 26.0613 103.8 25.088C104.33 24.1147 105.077 23.3613 106.04 22.828C107.004 22.2947 108.127 22.028 109.412 22.028C110.802 22.028 111.993 22.3147 112.988 22.888C113.984 23.44 114.71 24.244 115.168 25.3C115.648 26.3347 115.878 27.4947 115.856 28.78H112.42C112.376 28.0067 112.098 27.38 111.584 26.9C111.091 26.42 110.45 26.18 109.664 26.18C108.744 26.18 108.039 26.488 107.548 27.104C107.058 27.6987 106.812 28.62 106.812 29.868V30.368C106.812 31.5947 107.058 32.5053 107.548 33.1C108.039 33.6947 108.744 33.992 109.664 33.992C110.45 33.992 111.091 33.752 111.584 33.272C112.098 32.7707 112.376 32.1547 112.42 31.424H115.62C115.598 32.4133 115.312 33.3 114.764 34.084C114.216 34.8467 113.466 35.4413 112.512 35.868C111.58 36.2947 110.558 36.508 109.444 36.508C108.138 36.508 107.004 36.2627 106.04 35.772C105.077 35.26 104.33 34.5387 103.8 33.608C103.292 32.656 103.038 31.5387 103.038 30.256V29.868C103.038 28.5853 103.292 27.4787 103.8 26.548C104.33 25.596 105.077 24.8747 106.04 24.384C107.004 23.8933 108.138 23.648 109.444 23.648C110.846 23.648 112.04 23.9347 113.024 24.508C114.008 25.0813 114.732 25.8733 115.192 26.884C115.672 27.8733 115.9 28.9547 115.876 30.128H112.42C112.376 29.288 112.098 28.6187 111.584 28.116C111.091 27.5927 110.45 27.332 109.664 27.332C108.744 27.332 108.039 27.6293 107.548 28.224C107.058 28.8187 106.812 29.7293 106.812 30.956V31.48C106.812 32.7067 107.058 33.6067 107.548 34.18C108.039 34.7533 108.744 35.04 109.664 35.04C110.45 35.04 111.091 34.8 111.584 34.32C112.098 33.84 112.376 33.1147 112.42 32.152" fill="white"/>
</svg>
